<svg width="20" height="20" viewBox="0 0 20 20" fill="none" xmlns="http://www.w3.org/2000/svg">
<path d="M4.99299 10C4.99299 12.761 7.23899 15.007 9.99999 15.007C12.761 15.007 15.007 12.761 15.007 10C15.007 7.239 12.761 4.993 9.99999 4.993C7.23899 4.993 4.99299 7.239 4.99299 10ZM9.99999 6.993C11.658 6.993 13.007 8.342 13.007 10C13.007 11.658 11.658 13.007 9.99999 13.007C8.34199 13.007 6.99299 11.658 6.99299 10C6.99299 8.342 8.34199 6.993 9.99999 6.993ZM8.99799 17H10.998V20H8.99799V17ZM8.99799 0H10.998V3H8.99799V0ZM-0.00201416 9H2.99799V11H-0.00201416V9ZM16.998 9H19.998V11H16.998V9ZM2.21899 16.363L4.33899 14.241L5.75399 15.655L3.63399 17.777L2.21899 16.363ZM14.24 4.344L16.362 2.222L17.776 3.636L15.654 5.758L14.24 4.344ZM4.34199 5.759L2.21999 3.637L3.63499 2.223L5.75499 4.345L4.34199 5.759ZM17.776 16.364L16.362 17.778L14.24 15.656L15.654 14.242L17.776 16.364Z" fill="#181818"/>
</svg>
